<svg width="26" height="27" viewBox="0 0 26 27" fill="none" xmlns="http://www.w3.org/2000/svg">
<g clip-path="url(#clip0_21_359)">
<path d="M7.66829 26.0133C7.15567 25.6723 6.70135 25.2509 6.32279 24.7653C5.90637 24.2641 5.52054 23.7383 5.16741 23.1907C4.33873 21.9767 3.68885 20.6498 3.23772 19.2509C2.69579 17.6259 2.43335 16.0683 2.43335 14.5449C2.43335 12.8435 2.80141 11.3582 3.52129 10.1102C4.05492 9.13478 4.8395 8.31963 5.79385 7.74911C6.71872 7.17465 7.78142 6.86028 8.86997 6.83911C9.25104 6.83911 9.66135 6.89436 10.0968 6.99999C10.4097 7.08855 10.7907 7.2283 11.2563 7.40218C11.8486 7.63049 12.1744 7.77024 12.2849 7.80436C12.6318 7.93111 12.9235 7.98636 13.1527 7.98636C13.3265 7.98636 13.5719 7.93111 13.8506 7.84661C14.0074 7.79136 14.3032 7.69386 14.7265 7.51268C15.1457 7.35993 15.4756 7.22911 15.738 7.13161C16.1402 7.01299 16.5294 6.9033 16.8763 6.84805C17.2876 6.78321 17.705 6.76603 18.1203 6.79686C18.8398 6.84389 19.5486 6.99638 20.2238 7.24943C21.328 7.69386 22.221 8.38774 22.8856 9.37411C22.6047 9.54725 22.341 9.74696 22.0983 9.97049C21.5698 10.439 21.1197 10.9889 20.765 11.5996C20.3013 12.434 20.0609 13.3741 20.067 14.3287C20.0841 15.5012 20.3847 16.5339 20.977 17.4268C21.4125 18.0886 21.9784 18.6545 22.6402 19.09C22.979 19.3183 23.2707 19.4751 23.5502 19.5807C23.4194 19.987 23.2797 20.3802 23.1147 20.7702C22.7406 21.6448 22.2873 22.4833 21.7603 23.2752C21.2907 23.9569 20.9226 24.4647 20.6431 24.8027C20.2076 25.3186 19.7883 25.7127 19.365 25.9873C18.8995 26.2961 18.3494 26.461 17.7904 26.461C17.4118 26.4755 17.0333 26.4297 16.6692 26.3253C16.3563 26.2197 16.0468 26.1051 15.7421 25.9743C15.4253 25.8288 15.0987 25.7058 14.7647 25.6062C13.9389 25.3941 13.0731 25.3928 12.2467 25.6022C11.9079 25.6997 11.5821 25.8134 11.2603 25.9532C10.8078 26.1433 10.5072 26.2709 10.3333 26.3253C9.98635 26.4269 9.62641 26.4902 9.26241 26.5114C8.69935 26.5114 8.17447 26.3505 7.65447 26.0247L7.66829 26.0133ZM15.0945 6.01361C14.3584 6.38168 13.6556 6.53849 12.9577 6.4873C12.848 5.78449 12.9577 5.06543 13.2493 4.27811C13.4977 3.61111 13.8646 2.99451 14.3324 2.45811C14.8264 1.89344 15.4259 1.43061 16.0972 1.09555C16.8122 0.727488 17.4938 0.528426 18.1455 0.499176C18.23 1.2353 18.1455 1.95924 17.8749 2.74168C17.6245 3.43334 17.2583 4.07737 16.7918 4.64618C16.3158 5.21162 15.7315 5.67625 15.0734 6.0128L15.0945 6.01361Z" fill="black"/>
</g>
<defs>
<clipPath id="clip0_21_359">
<rect width="26" height="26" fill="white" transform="translate(0 0.5)"/>
</clipPath>
</defs>
</svg>
