<svg width="18" height="16" viewBox="0 0 18 16" fill="none" xmlns="http://www.w3.org/2000/svg">
<path d="M12.3333 2.16667V8.83333C12.3333 9.75 11.5833 10.5 10.6667 10.5H5.66667C4.75001 10.5 4.00001 9.75 4.00001 8.83333V2.16667H12.3333ZM15.6667 0.5H2.33334V8.83333C2.33334 10.675 3.82501 12.1667 5.66667 12.1667H10.6667C12.5083 12.1667 14 10.675 14 8.83333V6.33333H15.6667C16.5917 6.33333 17.3333 5.59167 17.3333 4.66667V2.16667C17.3333 1.24167 16.5917 0.5 15.6667 0.5ZM14 4.66667V2.16667H15.6667V4.66667H14ZM15.6667 13.8333H0.666672V15.5H15.6667V13.8333Z" fill="#0F172A"/>
</svg>
