<svg width="26" height="23" viewBox="0 0 26 23" fill="none" xmlns="http://www.w3.org/2000/svg">
<path d="M24.3333 3.44223C23.2911 1.30334 20.2889 -0.446659 16.7967 0.572229C15.1279 1.05425 13.6719 2.08795 12.6667 3.50445C11.6614 2.08795 10.2054 1.05425 8.53666 0.572229C5.03666 -0.431104 2.04221 1.30334 0.999988 3.44223C-0.462234 6.43667 0.144433 9.80445 2.80443 13.4522C4.88888 16.3067 7.86777 19.2 12.1922 22.56C12.3289 22.6666 12.4972 22.7245 12.6705 22.7245C12.8439 22.7245 13.0122 22.6666 13.1489 22.56C17.4655 19.2078 20.4522 16.3378 22.5367 13.4522C25.1889 9.80445 25.7955 6.43667 24.3333 3.44223V3.44223Z" fill="black" fill-opacity="0.2"/>
</svg>
