<svg width="24" height="24" viewBox="0 0 24 24" fill="none" xmlns="http://www.w3.org/2000/svg">
<path d="M5.4202 14.4656L4.59745 17.537L1.59033 17.6007C0.691636 15.9338 0.181885 14.0267 0.181885 12C0.181885 10.0403 0.65849 8.19223 1.50331 6.56497H1.50395L4.18114 7.0558L5.35391 9.71692C5.10845 10.4325 4.97467 11.2007 4.97467 12C4.97476 12.8676 5.1319 13.6988 5.4202 14.4656Z" fill="#FBBB00"/>
<path d="M23.6119 9.79218C23.7476 10.5071 23.8184 11.2454 23.8184 12C23.8184 12.8461 23.7294 13.6714 23.5599 14.4675C22.9846 17.1766 21.4814 19.5422 19.3989 21.2162L19.3983 21.2156L16.0262 21.0435L15.549 18.0643C16.9308 17.2539 18.0107 15.9857 18.5795 14.4675H12.26V9.79218H18.6717H23.6119Z" fill="#518EF8"/>
<path d="M19.3981 21.2156L19.3988 21.2163C17.3735 22.8442 14.8007 23.8182 12.0001 23.8182C7.49942 23.8182 3.58645 21.3026 1.59033 17.6007L5.42021 14.4656C6.41824 17.1293 8.98773 19.0254 12.0001 19.0254C13.2949 19.0254 14.5079 18.6754 15.5488 18.0643L19.3981 21.2156Z" fill="#28B446"/>
<path d="M19.5437 2.90259L15.7151 6.03699C14.6379 5.36363 13.3644 4.97465 12.0002 4.97465C8.91965 4.97465 6.30211 6.95775 5.35407 9.71688L1.50406 6.56493H1.50342C3.47031 2.77273 7.43264 0.181824 12.0002 0.181824C14.8677 0.181824 17.4969 1.20327 19.5437 2.90259Z" fill="#F14336"/>
</svg>
