<svg width="24" height="22" viewBox="0 0 24 22" fill="none" xmlns="http://www.w3.org/2000/svg">
<path d="M15.5417 14C16.6687 14 17.5833 14.9147 17.5833 16.0417L17.5822 17.164C17.7187 19.719 15.8193 21.0105 12.4115 21.0105C9.01649 21.0105 7.08332 19.7388 7.08332 17.2083V16.0417C7.08332 14.9147 7.99799 14 9.12499 14H15.5417ZM2.70832 8.16667H7.81366C7.61009 8.95882 7.61792 9.79052 7.83636 10.5787C8.0548 11.3669 8.47621 12.084 9.05849 12.6583L9.24749 12.8345L9.12499 12.8333C8.42479 12.8331 7.74373 13.0619 7.18573 13.4849C6.62773 13.9079 6.22342 14.5018 6.03449 15.176L5.99482 15.1772C2.59982 15.1772 0.666656 13.9055 0.666656 11.375V10.2083C0.666656 9.08133 1.58132 8.16667 2.70832 8.16667ZM21.9583 8.16667C23.0853 8.16667 24 9.08133 24 10.2083L23.9988 11.3307C24.1353 13.8857 22.236 15.1772 18.8282 15.1772L18.631 15.1748C18.4516 14.5394 18.081 13.9745 17.5694 13.557C17.0578 13.1396 16.43 12.8897 15.7715 12.8415L15.5417 12.8333L15.4192 12.8345C16.0668 12.2657 16.5438 11.5282 16.7969 10.7042C17.0501 9.88025 17.0695 9.00218 16.853 8.16783L21.9583 8.16667ZM12.3333 5.83333C12.7929 5.83333 13.2481 5.92386 13.6727 6.09976C14.0974 6.27565 14.4832 6.53345 14.8082 6.85846C15.1332 7.18346 15.391 7.5693 15.5669 7.99394C15.7428 8.41858 15.8333 8.87371 15.8333 9.33333C15.8333 9.79296 15.7428 10.2481 15.5669 10.6727C15.391 11.0974 15.1332 11.4832 14.8082 11.8082C14.4832 12.1332 14.0974 12.391 13.6727 12.5669C13.2481 12.7428 12.7929 12.8333 12.3333 12.8333C11.4051 12.8333 10.5148 12.4646 9.85845 11.8082C9.20207 11.1518 8.83332 10.2616 8.83332 9.33333C8.83332 8.40508 9.20207 7.51484 9.85845 6.85846C10.5148 6.20208 11.4051 5.83333 12.3333 5.83333ZM5.91666 0C6.84491 0 7.73515 0.368749 8.39153 1.02513C9.04791 1.6815 9.41666 2.57174 9.41666 3.5C9.41666 4.42826 9.04791 5.3185 8.39153 5.97487C7.73515 6.63125 6.84491 7 5.91666 7C4.9884 7 4.09816 6.63125 3.44178 5.97487C2.78541 5.3185 2.41666 4.42826 2.41666 3.5C2.41666 2.57174 2.78541 1.6815 3.44178 1.02513C4.09816 0.368749 4.9884 0 5.91666 0ZM18.75 0C19.6782 0 20.5685 0.368749 21.2249 1.02513C21.8812 1.6815 22.25 2.57174 22.25 3.5C22.25 4.42826 21.8812 5.3185 21.2249 5.97487C20.5685 6.63125 19.6782 7 18.75 7C17.8217 7 16.9315 6.63125 16.2751 5.97487C15.6187 5.3185 15.25 4.42826 15.25 3.5C15.25 2.57174 15.6187 1.6815 16.2751 1.02513C16.9315 0.368749 17.8217 0 18.75 0Z" fill="black" fill-opacity="0.2"/>
</svg>
