<svg width="20" height="23" viewBox="0 0 20 23" fill="none" xmlns="http://www.w3.org/2000/svg">
<path d="M8.592 0.997988C8.99135 0.677601 9.48802 0.502991 10 0.502991C10.512 0.502991 11.0087 0.677601 11.408 0.997988L19.158 7.21499C19.4208 7.42582 19.6329 7.69297 19.7786 7.99672C19.9243 8.30048 20 8.63308 20 8.96999V20.25C20 20.8467 19.7629 21.419 19.341 21.841C18.919 22.2629 18.3467 22.5 17.75 22.5H15.25C14.6533 22.5 14.081 22.2629 13.659 21.841C13.2371 21.419 13 20.8467 13 20.25V13.75C13 13.5511 12.921 13.3603 12.7803 13.2197C12.6397 13.079 12.4489 13 12.25 13H7.75C7.55109 13 7.36032 13.079 7.21967 13.2197C7.07902 13.3603 7 13.5511 7 13.75V20.25C7 20.8467 6.76295 21.419 6.34099 21.841C5.91903 22.2629 5.34674 22.5 4.75 22.5H2.25C1.65326 22.5 1.08097 22.2629 0.65901 21.841C0.237053 21.419 0 20.8467 0 20.25V8.96999C0 8.28699 0.31 7.64199 0.842 7.21499L8.592 0.997988Z" fill="#6865FE"/>
</svg>
