<svg width="18" height="16" viewBox="0 0 18 16" fill="none" xmlns="http://www.w3.org/2000/svg">
<path d="M4.83126 0.5C3.71126 0.5 2.72751 1.245 2.42376 2.32375L0.348764 9.69625C0.24004 10.0829 0.222388 10.4896 0.297195 10.8842C0.372001 11.2789 0.537231 11.6508 0.779921 11.9709C1.02261 12.291 1.33616 12.5505 1.69598 12.729C2.05579 12.9076 2.45208 13.0003 2.85376 13H15.1463C15.5479 13.0003 15.9442 12.9076 16.304 12.729C16.6639 12.5505 16.9774 12.291 17.2201 11.9709C17.4628 11.6508 17.628 11.2789 17.7028 10.8842C17.7776 10.4896 17.76 10.0829 17.6513 9.69625L15.5763 2.32375C15.4286 1.79891 15.1135 1.3367 14.6789 1.00748C14.2443 0.678255 13.714 0.500054 13.1688 0.5H4.83126ZM3.62751 2.6625C3.70115 2.39991 3.85864 2.16861 4.07597 2.00386C4.2933 1.83911 4.55855 1.74996 4.83126 1.75H13.1688C13.4415 1.74996 13.7067 1.83911 13.9241 2.00386C14.1414 2.16861 14.2989 2.39991 14.3725 2.6625L16.4475 10.035C16.5039 10.2357 16.513 10.4467 16.4742 10.6515C16.4353 10.8563 16.3496 11.0494 16.2236 11.2155C16.0977 11.3816 15.935 11.5163 15.7483 11.6091C15.5616 11.7018 15.356 11.75 15.1475 11.75H2.85251C2.64405 11.75 2.43841 11.7018 2.25171 11.6091C2.06501 11.5163 1.90232 11.3816 1.77639 11.2155C1.65046 11.0494 1.56472 10.8563 1.52587 10.6515C1.48703 10.4467 1.49615 10.2357 1.55251 10.035L3.62751 2.66125V2.6625ZM4.62126 14.25C4.4555 14.25 4.29653 14.3158 4.17932 14.4331C4.06211 14.5503 3.99626 14.7092 3.99626 14.875C3.99626 15.0408 4.06211 15.1997 4.17932 15.3169C4.29653 15.4342 4.4555 15.5 4.62126 15.5H13.3775C13.5433 15.5 13.7022 15.4342 13.8195 15.3169C13.9367 15.1997 14.0025 15.0408 14.0025 14.875C14.0025 14.7092 13.9367 14.5503 13.8195 14.4331C13.7022 14.3158 13.5433 14.25 13.3775 14.25H4.62126Z" fill="#0F172A"/>
</svg>
