<svg width="18" height="16" viewBox="0 0 18 16" fill="none" xmlns="http://www.w3.org/2000/svg">
<path d="M17.05 7.47L10.05 0.469996C9.85706 0.282431 9.57872 0.212038 9.31983 0.285332C9.06093 0.358627 8.8608 0.564474 8.79483 0.825333C8.72885 1.08619 8.80706 1.36243 8.99998 1.55L14.71 7.25H1.47998C1.06577 7.25 0.72998 7.58578 0.72998 8C0.72998 8.41421 1.06577 8.75 1.47998 8.75H14.7L8.99998 14.45C8.85703 14.5893 8.77641 14.7804 8.77641 14.98C8.77641 15.1796 8.85703 15.3707 8.99998 15.51C9.13782 15.6546 9.33023 15.7345 9.52998 15.73C9.72905 15.7309 9.9201 15.6516 10.06 15.51L17.06 8.51C17.3524 8.21718 17.3524 7.74281 17.06 7.45L17.05 7.47Z" fill="black"/>
</svg>
