<svg width="15" height="18" viewBox="0 0 15 18" fill="none" xmlns="http://www.w3.org/2000/svg">
<path d="M12.5 12.4C11.8667 12.4 11.3 12.65 10.8667 13.0417L4.925 9.58332C4.96667 9.39166 5 9.19999 5 8.99999C5 8.79999 4.96667 8.60832 4.925 8.41666L10.8 4.99166C11.25 5.40832 11.8417 5.66666 12.5 5.66666C13.163 5.66666 13.7989 5.40326 14.2678 4.93442C14.7366 4.46558 15 3.8297 15 3.16666C15 2.50362 14.7366 1.86773 14.2678 1.39889C13.7989 0.930049 13.163 0.666656 12.5 0.666656C11.837 0.666656 11.2011 0.930049 10.7322 1.39889C10.2634 1.86773 10 2.50362 10 3.16666C10 3.36666 10.0333 3.55832 10.075 3.74999L4.2 7.17499C3.75 6.75832 3.15833 6.49999 2.5 6.49999C1.83696 6.49999 1.20107 6.76338 0.732233 7.23222C0.263392 7.70106 0 8.33695 0 8.99999C0 9.66303 0.263392 10.2989 0.732233 10.7678C1.20107 11.2366 1.83696 11.5 2.5 11.5C3.15833 11.5 3.75 11.2417 4.2 10.825L10.1333 14.2833C10.0917 14.4583 10.0667 14.6417 10.0667 14.8333C10.0667 16.175 11.1583 17.2583 12.5 17.2583C13.8417 17.2583 14.9333 16.175 14.9333 14.8333C14.9333 14.188 14.677 13.569 14.2206 13.1127C13.7643 12.6564 13.1454 12.4 12.5 12.4Z" fill="black"/>
</svg>
