<svg width="10" height="11" viewBox="0 0 10 11" fill="none" xmlns="http://www.w3.org/2000/svg">
<path d="M9.64182 4.13789L6.66643 3.70547L5.33635 1.00898C5.30002 0.935155 5.24026 0.875389 5.16643 0.839061C4.98127 0.747654 4.75627 0.823826 4.66369 1.00898L3.33362 3.70547L0.358225 4.13789C0.276194 4.14961 0.201194 4.18828 0.143772 4.24688C0.0743521 4.31823 0.0360986 4.41422 0.037417 4.51376C0.0387354 4.6133 0.0795179 4.70825 0.150803 4.77774L2.30354 6.87657L1.79494 9.84024C1.78302 9.90918 1.79065 9.98009 1.81697 10.0449C1.84329 10.1097 1.88724 10.1659 1.94385 10.207C2.00046 10.2481 2.06746 10.2726 2.13725 10.2775C2.20704 10.2825 2.27682 10.2678 2.33869 10.2352L5.00002 8.83594L7.66135 10.2352C7.73401 10.2738 7.81838 10.2867 7.89924 10.2727C8.10315 10.2375 8.24026 10.0441 8.2051 9.84024L7.69651 6.87657L9.84924 4.77774C9.90784 4.72031 9.94651 4.64531 9.95823 4.56328C9.98987 4.3582 9.8469 4.16836 9.64182 4.13789Z" fill="#FFB24D"/>
</svg>
