<svg width="58" height="26" viewBox="0 0 58 26" fill="none" xmlns="http://www.w3.org/2000/svg">
<g clip-path="url(#clip0_1_8679)">
<path d="M44.7568 0.0327148C43.6578 0.0327148 42.7655 0.925023 42.7655 2.02408C42.7655 3.27549 43.9189 4.25485 45.2248 3.96105C45.943 3.79782 46.5306 3.2102 46.6938 2.492C46.9876 1.18619 46.0083 0.0327148 44.7568 0.0327148ZM43.2878 25.5288H46.2259V9.85898H43.2878V25.5288ZM50.1651 17.6939V25.5288H53.1032V17.6939C53.1032 14.9952 55.2904 12.7971 58 12.7971V9.85898C53.669 9.85898 50.1651 13.3629 50.1651 17.6939ZM7.85666 12.9168C8.95572 12.9168 9.95685 13.2759 10.773 13.8852L12.8732 11.7851C11.5129 10.6534 9.76097 9.9678 7.85666 9.9678C3.51482 9.9678 0 13.4826 0 17.8245C0 22.1663 3.51482 25.6811 7.85666 25.6811C9.76097 25.6811 11.5129 24.9956 12.8732 23.8639L10.773 21.7637C9.95685 22.3731 8.94484 22.7322 7.85666 22.7322C5.14709 22.7322 2.94897 20.534 2.94897 17.8245C2.94897 15.1149 5.14709 12.9168 7.85666 12.9168ZM17.9876 17.8462V0.141533H15.0495V17.8462C15.0495 22.1772 18.5535 25.6811 22.8844 25.6811V22.743C20.1749 22.743 17.9876 20.5558 17.9876 17.8462ZM38.4236 19.3153V9.85898H35.4856V11.5783C34.1471 10.501 32.4386 9.85898 30.5887 9.85898C26.2578 9.85898 22.7538 13.3629 22.7538 17.6939C22.7538 22.0248 26.2578 25.5288 30.5887 25.5288C32.7542 25.5288 34.7129 24.6473 36.1276 23.2327C36.2146 23.1457 36.3017 23.0586 36.3887 22.9607C36.922 23.9618 37.6619 24.8432 38.5542 25.5288L40.6653 23.4177C39.3159 22.5472 38.4236 21.0346 38.4236 19.3153ZM34.9306 19.9246C34.1253 21.5025 32.4822 22.5798 30.5887 22.5798C27.8901 22.5798 25.7028 20.3926 25.7028 17.6939C25.7028 14.9952 27.8901 12.8079 30.5887 12.8079C31.2634 12.8079 31.9163 12.9494 32.5039 13.1997C34.2559 13.9397 35.4747 15.6807 35.4747 17.6939C35.4747 18.4991 35.2788 19.25 34.9306 19.9246Z" fill="black"/>
</g>
<defs>
<clipPath id="clip0_1_8679">
<rect width="58" height="25.6811" fill="white"/>
</clipPath>
</defs>
</svg>
