<svg width="69" height="67" viewBox="0 0 69 67" fill="none" xmlns="http://www.w3.org/2000/svg">
<ellipse cx="2.94708" cy="43.2655" rx="2.94757" ry="3.10786" fill="#0F172A"/>
<ellipse cx="2.94708" cy="23.1867" rx="2.94757" ry="3.10786" fill="#0F172A"/>
<ellipse cx="2.94733" cy="3.10786" rx="2.94757" ry="3.10786" fill="#0F172A"/>
<ellipse cx="2.94708" cy="63.3442" rx="2.94757" ry="3.10786" fill="#0F172A"/>
<ellipse cx="23.8422" cy="43.2655" rx="2.94757" ry="3.10786" fill="#0F172A"/>
<ellipse cx="23.8422" cy="23.1867" rx="2.94757" ry="3.10786" fill="#0F172A"/>
<ellipse cx="23.8425" cy="3.10786" rx="2.94757" ry="3.10786" fill="#0F172A"/>
<ellipse cx="23.8422" cy="63.3442" rx="2.94757" ry="3.10786" fill="#0F172A"/>
<ellipse cx="44.7374" cy="43.2655" rx="2.94757" ry="3.10786" fill="#0F172A"/>
<ellipse cx="44.7374" cy="23.1867" rx="2.94757" ry="3.10786" fill="#0F172A"/>
<ellipse cx="44.7376" cy="3.10786" rx="2.94757" ry="3.10786" fill="#0F172A"/>
<ellipse cx="44.7374" cy="63.3442" rx="2.94757" ry="3.10786" fill="#0F172A"/>
<ellipse cx="65.6325" cy="43.2655" rx="2.94757" ry="3.10786" fill="#0F172A"/>
<ellipse cx="65.6325" cy="23.1867" rx="2.94757" ry="3.10786" fill="#0F172A"/>
<ellipse cx="65.6328" cy="3.10786" rx="2.94757" ry="3.10786" fill="#0F172A"/>
<ellipse cx="65.6325" cy="63.3442" rx="2.94757" ry="3.10786" fill="#0F172A"/>
</svg>
